<?xml version="1.0" encoding="UTF-8" standalone="no"?>
<svg
   xmlns:dc="http://purl.org/dc/elements/1.1/"
   xmlns:cc="http://creativecommons.org/ns#"
   xmlns:rdf="http://www.w3.org/1999/02/22-rdf-syntax-ns#"
   xmlns:svg="http://www.w3.org/2000/svg"
   xmlns="http://www.w3.org/2000/svg"
   xmlns:sodipodi="http://sodipodi.sourceforge.net/DTD/sodipodi-0.dtd"
   xmlns:inkscape="http://www.inkscape.org/namespaces/inkscape"
   sodipodi:docname="drawing-4.svg"
   inkscape:version="1.0 (4035a4fb49, 2020-05-01)"
   id="svg8"
   version="1.1"
   viewBox="0 0 242.00555 128.41112"
   height="128.41112mm"
   width="242.00555mm">
  <defs
     id="defs2" />
  <sodipodi:namedview
     inkscape:window-maximized="0"
     inkscape:window-y="0"
     inkscape:window-x="26"
     inkscape:window-height="1040"
     inkscape:window-width="1274"
     showgrid="false"
     inkscape:document-rotation="0"
     inkscape:current-layer="layer1"
     inkscape:document-units="mm"
     inkscape:cy="466.43251"
     inkscape:cx="413.44157"
     inkscape:zoom="0.7"
     inkscape:pageshadow="2"
     inkscape:pageopacity="0.0"
     borderopacity="1.0"
     bordercolor="#666666"
     pagecolor="#ffffff"
     id="base" />
  <metadata
     id="metadata5">
    <rdf:RDF>
      <cc:Work
         rdf:about="">
        <dc:format>image/svg+xml</dc:format>
        <dc:type
           rdf:resource="http://purl.org/dc/dcmitype/StillImage" />
        <dc:title></dc:title>
      </cc:Work>
    </rdf:RDF>
  </metadata>
  <g
     transform="translate(76.59057,-111.93135)"
     id="layer1"
     inkscape:groupmode="layer"
     inkscape:label="Layer 1">
    <g
       transform="matrix(-1,0,0,1,71.62649,20.41072)"
       id="g1045">
      <path
         id="path1053"
         d="M -93.78849,155.72619 V 91.52063 H 27.214285 148.21706 v 64.20556 64.20556 H 27.214285 -93.78849 Z m 200.2138,46.70249 c 0.47824,-0.31336 0.86953,-0.71024 0.86953,-0.88195 0,-0.17889 -14.275312,-0.3122 -33.431198,-0.3122 -31.704047,0 -33.493297,-0.0333 -34.633161,-0.64462 -2.765181,-1.48299 -3.198734,-4.81024 -0.923148,-7.0846 l 1.267304,-1.26662 h 33.653871 c 18.509628,0 33.755032,-0.10096 33.878682,-0.22436 0.28538,-0.28482 -1.51023,-1.71592 -2.15298,-1.71592 -0.39547,0 -0.48159,-1.7664 -0.48159,-9.87777 v -9.87778 l 1.67569,-0.005 c 2.78896,-0.009 2.71187,0.19105 2.91042,-7.55297 l 0.17639,-6.87989 2.01836,1.77143 c 1.1101,0.97429 2.39417,1.80196 2.85348,1.83927 0.45931,0.0373 1.77355,0.90037 2.92052,1.9179 1.14698,1.01754 2.2508,1.85098 2.45293,1.85209 0.67003,0.004 3.33665,-3.01008 3.33665,-3.77101 0,-0.7193 -3.21743,-3.98809 -3.92543,-3.98809 -0.17674,0 -0.22519,-0.38312 -0.10766,-0.85137 0.1458,-0.58092 0.002,-1.05721 -0.45148,-1.49931 -1.06609,-1.03848 -3.81969,-3.44839 -6.67174,-5.839 -1.86418,-1.56257 -2.97052,-2.82495 -3.74688,-4.27531 -2.18425,-4.08055 -5.20402,-5.52668 -11.540675,-5.52668 -4.0527,0 -5.161036,0.38289 -5.370198,1.85519 -0.109873,0.77338 -0.241293,0.79518 -6.018932,0.99836 -4.807412,0.16906 -6.027113,0.31677 -6.554167,0.79375 -0.405532,0.367 -1.252689,0.58604 -2.266621,0.58604 -2.597613,0 -2.735104,0.13272 -2.735104,2.64038 0,1.34066 0.173718,2.3553 0.440972,2.57557 0.616828,0.50841 4.454289,0.77286 10.759722,0.7415 3.867841,-0.0192 5.379861,0.0885 5.379861,0.38331 0,0.43961 -0.756176,5.97811 -1.638871,12.00368 -0.298443,2.03729 -0.592551,5.34077 -0.653567,7.34106 -0.09823,3.2202 -0.215773,3.79531 -1.025917,5.01952 -1.120387,1.69302 -1.120334,1.68789 -0.03302,3.16164 0.48507,0.65748 0.881945,1.32332 0.881945,1.47965 0,0.15634 -3.770313,0.27942 -8.378472,0.27352 -6.510743,-0.008 -8.22119,-0.10155 -7.672917,-0.41813 0.814783,-0.47046 1.5875,-1.19388 1.5875,-1.48623 0,-0.11087 -15.200312,-0.20721 -33.778471,-0.21409 -26.794647,-0.01 -33.946976,-0.106 -34.593473,-0.46475 -2.9159235,-1.61809 -2.8010132,-6.59913 0.1836032,-7.95901 0.7620881,-0.34723 8.2253628,-0.43389 34.3748848,-0.39913 21.85484,0.029 33.476553,-0.0771 33.618698,-0.3071 0.119482,-0.19333 -0.218098,-0.6363 -0.750175,-0.98437 -0.923554,-0.60416 -4.031198,-0.62722 -68.5383245,-0.5085 -54.1851305,0.0997 -67.7888205,0.2146 -68.6709295,0.57993 -1.871699,0.77516 -3.086092,2.74872 -3.228711,5.24709 -0.151898,2.66093 0.567608,4.16529 2.721542,5.69029 l 1.494809,1.05833 9.469257,-0.004 c 8.045199,-0.004 9.2461,0.0607 7.985371,0.42835 -2.651915,0.77327 -4.851357,3.60954 -4.791794,6.17922 0.05255,2.26734 1.117215,4.15509 3.14816,5.58202 1.20849,0.84908 1.414611,0.87126 9.701389,1.0439 7.819616,0.16291 8.386791,0.21683 7.421502,0.70555 -1.275979,0.64603 -2.564182,2.48722 -2.866061,4.09637 -0.474635,2.53003 0.714787,5.20204 3.001652,6.74316 l 1.190304,0.80214 h 67.693573 c 61.720461,0 67.770295,-0.0503 68.563105,-0.56974 z m -16.755838,-12.92402 0.852117,-0.79375 -34.163535,-0.17638 -34.163536,-0.17639 -1.194283,-1.3817 c -1.369081,-1.58392 -1.59639,-3.47317 -0.617301,-5.13064 1.334138,-2.25851 -0.800954,-2.13072 35.598279,-2.13072 31.079415,0 33.095966,0.0371 33.536431,0.61736 0.257757,0.33955 0.473706,0.77611 0.479894,0.97014 0.0074,0.23329 -10.622855,0.32163 -31.386003,0.26082 -21.187756,-0.062 -31.39725,0.0252 -31.39725,0.26825 0,0.2425 10.345536,0.35592 31.661805,0.34711 l 31.661805,-0.0131 2.06836,3.00804 c 1.968624,2.863 2.982895,3.61506 3.577636,2.65276 0.120767,-0.19541 0.685761,-0.59637 1.25554,-0.89101 l 1.035963,-0.53572 v 1.94934 1.94933 h -4.829019 -4.82902 z m 1.044812,-3.0868 c 0,-0.23257 -10.81852,-0.35278 -31.75,-0.35278 -20.93148,0 -31.749999,0.12021 -31.749999,0.35278 0,0.23257 10.818519,0.35278 31.749999,0.35278 20.93148,0 31.75,-0.12021 31.75,-0.35278 z m -0.08818,-2.20486 c -0.115824,-0.34751 -6.851445,-0.46007 -31.7794,-0.53106 -27.972342,-0.0796 -31.632422,-0.0286 -31.632422,0.44098 0,0.46895 3.716073,0.53105 31.779396,0.53105 25.26672,0 31.74928,-0.0904 31.632426,-0.44097 z m 6.261788,-3.29217 c -0.776112,-1.26867 -2.001937,-3.2099 -2.724055,-4.31385 -0.722119,-1.10395 -1.314415,-2.16593 -1.316214,-2.35996 -0.0018,-0.19402 0.470256,-1.10684 1.049009,-2.02847 1.026855,-1.63521 1.094878,-1.67569 2.81552,-1.67569 h 1.763239 v 6.35 c 0,3.4925 -0.03969,6.34654 -0.08819,6.34232 -0.04851,-0.004 -0.723194,-1.04568 -1.499305,-2.31435 z m 10.936118,18.19703 c 0.14474,-0.2342 -10.527821,-0.35278 -31.750007,-0.35278 -21.222186,0 -31.89474,0.11858 -31.749999,0.35278 0.14272,0.23093 11.109222,0.35278 31.749999,0.35278 20.640777,0 31.607287,-0.12185 31.750007,-0.35278 z m 0.17638,-2.46944 c 0,-0.23259 -10.877312,-0.35278 -31.926387,-0.35278 -21.049075,0 -31.926388,0.12019 -31.926388,0.35278 0,0.23258 10.877313,0.35277 31.926388,0.35277 21.049075,0 31.926387,-0.12019 31.926387,-0.35277 z m -0.14696,-2.38126 c -0.37515,-0.37518 -63.325718,-0.4178 -63.557345,-0.043 -0.107594,0.1741 13.701709,0.30761 31.815895,0.30761 17.603303,0 31.88696,-0.11906 31.74145,-0.26459 z M 73.604562,173.36508 c -0.14272,-0.23093 -11.109223,-0.35278 -31.75,-0.35278 -20.640776,0 -31.607279,0.12185 -31.749999,0.35278 -0.144741,0.2342 10.527813,0.35278 31.749999,0.35278 21.222187,0 31.894741,-0.11858 31.75,-0.35278 z m -0.220889,-2.0817 c 0.928342,-0.58804 -14.229979,-0.83432 -38.761055,-0.62974 -13.48493,0.11246 -24.567112,0.21292 -24.6270702,0.22323 -0.059958,0.0103 -0.010901,0.17752 0.1090152,0.37154 0.27462,0.44434 62.578483,0.47877 63.27911,0.035 z m 0.220889,-2.50441 c 0.144741,-0.2342 -10.527813,-0.35278 -31.75,-0.35278 -21.222186,0 -31.89474,0.11858 -31.749999,0.35278 0.14272,0.23093 11.109223,0.35278 31.749999,0.35278 20.640777,0 31.60728,-0.12185 31.75,-0.35278 z m 29.118898,-34.52772 c 0.88123,-0.41728 2.20372,-1.34292 2.93886,-2.05697 1.42378,-1.38291 3.04363,-4.22541 3.04363,-5.34095 0,-0.37074 0.24859,-0.8804 0.55243,-1.13256 1.77962,-1.47696 2.23434,-5.42318 0.94177,-8.17302 -0.8615,-1.83275 -5.06991,-5.88032 -7.64251,-7.35042 -0.95623,-0.54643 -2.75143,-1.26767 -3.989345,-1.60276 -2.123941,-0.57492 -2.358164,-0.57539 -4.157133,-0.008 -3.851296,1.21402 -5.764971,4.65287 -4.235337,7.61086 0.46198,0.89336 0.458914,1.05592 -0.02752,1.45963 -0.301068,0.24986 -0.959062,1.25802 -1.462207,2.24034 -0.754451,1.47297 -0.91699,2.28076 -0.927241,4.60827 -0.01697,3.85571 1.248071,6.34853 4.444421,8.75787 2.799792,2.11042 7.264435,2.52973 10.520182,0.98803 z m 6.13476,-11.23837 c -0.70392,-4.81852 -4.62554,-8.55832 -9.591125,-9.14642 -2.051466,-0.24296 -5.018366,0.52099 -6.849657,1.76374 -1.189171,0.80699 -1.257374,0.81481 -1.648216,0.18897 -0.649006,-1.03922 -0.474903,-2.9291 0.386034,-4.19038 1.134999,-1.66279 2.859165,-2.46927 5.279023,-2.46927 2.380033,0 4.305661,0.68688 6.980001,2.48981 5.234,3.52853 7.68396,7.58772 6.70024,11.10122 -0.61037,2.18002 -0.96533,2.25414 -1.2563,0.26233 z"
         style="fill:#fefefe;stroke-width:0.352778" />
      <path
         id="path1051"
         d="m -31.021677,202.19627 c -2.286864,-1.54112 -3.476286,-4.21313 -3.001652,-6.74315 0.301879,-1.60916 1.590083,-3.45034 2.866062,-4.09637 0.967606,-0.4899 0.456138,-0.54226 -6.892335,-0.70556 -4.365625,-0.097 21.193124,-0.13036 56.797221,-0.0741 35.604096,0.0563 68.167456,-0.0231 72.363021,-0.17638 5.940855,-0.21703 7.719282,-0.18113 8.039601,0.1623 0.566885,0.60777 4.083019,0.5716 4.702999,-0.0484 0.40001,-0.4 0.6784,-0.40987 1.52465,-0.0541 1.10312,0.46383 2.20852,1.55439 1.69556,1.6728 -0.16928,0.0391 -15.425759,0.0788 -33.903295,0.0882 l -33.595518,0.0171 -1.267304,1.26662 c -2.275586,2.27435 -1.842033,5.60161 0.923148,7.08459 1.139864,0.61132 2.929114,0.64462 34.633161,0.64462 19.155886,0 33.431198,0.13332 33.431198,0.31221 0,0.17171 -0.39129,0.56858 -0.86953,0.88194 -0.79281,0.51947 -6.842648,0.56975 -68.563109,0.56975 h -67.693574 z m 75.345684,-3.07841 c -0.144741,-0.2342 10.527813,-0.35278 31.749999,-0.35278 21.222186,0 31.894744,0.11858 31.750004,0.35278 -0.14272,0.23093 -11.109227,0.35278 -31.750004,0.35278 -20.640777,0 -31.607279,-0.12185 -31.749999,-0.35278 z m -0.176389,-2.46944 c 0,-0.23259 10.877313,-0.35278 31.926388,-0.35278 21.049075,0 31.926384,0.12019 31.926384,0.35278 0,0.23258 -10.877309,0.35277 -31.926384,0.35277 -21.049075,0 -31.926388,-0.12019 -31.926388,-0.35277 z m 0.14847,-2.42428 c 0.231627,-0.37478 63.182192,-0.33216 63.557342,0.043 0.14551,0.14553 -14.138144,0.26459 -31.741447,0.26459 -18.114186,0 -31.923489,-0.13351 -31.815895,-0.30761 z m -23.288931,-6.83614 -0.672039,-0.79375 0.79375,0.67204 c 0.745928,0.63155 0.954349,0.91546 0.672039,0.91546 -0.06694,0 -0.424131,-0.35719 -0.79375,-0.79375 z m 6.207128,-0.97014 c 0,-0.23257 10.818519,-0.35278 31.749999,-0.35278 20.93148,0 31.75,0.12021 31.75,0.35278 0,0.23257 -10.81852,0.35278 -31.75,0.35278 -20.93148,0 -31.749999,-0.12021 -31.749999,-0.35278 z m -7.672147,-2.29306 c 0.0039,-0.77611 0.07616,-1.05207 0.160542,-0.61324 0.08438,0.43882 0.08118,1.07382 -0.0071,1.41111 -0.0883,0.33728 -0.157339,-0.0218 -0.153423,-0.79787 z m 7.672147,-0.002 c 0,-0.46961 3.66008,-0.52063 31.632422,-0.44098 24.927955,0.071 31.663576,0.18355 31.7794,0.53106 0.116854,0.3506 -6.365706,0.44097 -31.632426,0.44097 -28.063323,0 -31.779396,-0.0621 -31.779396,-0.53105 z m 63.433768,-1.76944 c -0.101106,-0.10111 -14.415064,-0.17883 -31.808797,-0.17273 -21.280786,0.007 -31.624971,-0.10667 -31.624971,-0.34894 0,-0.24227 10.315984,-0.35646 31.536512,-0.34909 27.395561,0.01 31.59338,0.0795 31.969586,0.53276 0.401048,0.48324 0.343203,0.75353 -0.07233,0.338 z m -50.998352,-2.9029 c 9.070799,-0.0524 23.913923,-0.0524 32.984722,0 9.070798,0.0524 1.649236,0.0953 -16.492361,0.0953 -18.141597,0 -25.563159,-0.0429 -16.492361,-0.0953 z M -63.515032,177.2551 c -1.711827,-0.32096 -3.566062,-1.77068 -4.333628,-3.38821 -1.404332,-2.95941 0.02075,-7.30203 2.769868,-8.44058 0.882109,-0.36533 14.485799,-0.48021 68.6709294,-0.57993 64.5071266,-0.11872 67.6147706,-0.0957 68.5383246,0.5085 0.532077,0.34807 0.869657,0.79104 0.750175,0.98437 -0.142145,0.22999 -11.763858,0.33615 -33.618698,0.3071 -26.149522,-0.0348 -33.6127968,0.0519 -34.374885,0.39913 -2.9846163,1.35988 -3.0995266,6.34092 -0.1836031,7.95901 0.646497,0.35875 7.7988261,0.45484 34.5934731,0.46475 18.578159,0.007 33.778471,0.10322 33.778471,0.21409 0,0.31527 -0.820021,1.05716 -1.673147,1.51374 -0.589284,0.31538 -16.80035,0.40192 -67.1968876,0.35873 -36.5311324,-0.0313 -67.0053084,-0.16662 -67.7203924,-0.3007 z m 73.619595,-3.89002 c 0.14272,-0.23093 11.109223,-0.35278 31.749999,-0.35278 20.640777,0 31.60728,0.12185 31.75,0.35278 0.144741,0.2342 -10.527813,0.35278 -31.75,0.35278 -21.222186,0 -31.89474,-0.11858 -31.749999,-0.35278 z m 0,-2.11667 c -0.119916,-0.19402 -0.1689733,-0.36122 -0.1090152,-0.37154 0.059958,-0.0103 11.1421402,-0.11077 24.6270702,-0.22323 24.531076,-0.20458 39.689397,0.0417 38.761055,0.62974 -0.700627,0.4438 -63.00449,0.40937 -63.27911,-0.035 z m 0,-2.46944 c -0.144741,-0.2342 10.527813,-0.35278 31.749999,-0.35278 21.222187,0 31.894741,0.11858 31.75,0.35278 -0.14272,0.23093 -11.109223,0.35278 -31.75,0.35278 -20.640776,0 -31.607279,-0.12185 -31.749999,-0.35278 z m 109.118577,-5.53265 c 0.25466,-0.10191 0.55893,-0.0894 0.67616,0.0278 0.11722,0.11722 -0.0911,0.2006 -0.46303,0.18529 -0.41096,-0.0169 -0.49455,-0.10052 -0.21313,-0.21314 z m 2.53559,-2.00888 c 0,-0.0733 0.27781,-0.35107 0.61736,-0.61736 0.55953,-0.43881 0.572,-0.42633 0.13319,0.13319 -0.46086,0.58764 -0.75055,0.77452 -0.75055,0.48417 z m -9.21723,-2.24806 c -0.4388,-0.55952 -0.42633,-0.572 0.1332,-0.13319 0.58764,0.46086 0.77452,0.75056 0.48417,0.75056 -0.0733,0 -0.35107,-0.27782 -0.61737,-0.61737 z m -2.46944,-2.11666 c -0.43881,-0.55953 -0.42633,-0.57201 0.1332,-0.1332 0.58763,0.46086 0.77451,0.75056 0.48416,0.75056 -0.0733,0 -0.35107,-0.27781 -0.61736,-0.61736 z m 10.23056,0 c -0.43881,-0.55953 -0.42634,-0.57201 0.13319,-0.1332 0.58764,0.46086 0.77452,0.75056 0.48417,0.75056 -0.0733,0 -0.35107,-0.27781 -0.61736,-0.61736 z m -1.69104,-2.41065 c 0.0169,-0.41097 0.10052,-0.49456 0.21313,-0.21314 0.10191,0.25466 0.0894,0.55893 -0.0278,0.67616 -0.11723,0.11723 -0.2006,-0.0911 -0.18529,-0.46302 z m -28.927778,-4.23333 c 0.01693,-0.41097 0.100521,-0.49456 0.213134,-0.21314 0.101907,0.25466 0.08938,0.55893 -0.02783,0.67616 -0.117224,0.11722 -0.200603,-0.0911 -0.185286,-0.46302 z m -9.810722,-2.15536 c 0.343243,-0.0894 0.819493,-0.0836 1.058334,0.0131 0.238841,0.0966 -0.04199,0.16982 -0.624075,0.16263 -0.582083,-0.007 -0.777501,-0.0863 -0.434259,-0.1757 z m 7.930787,-0.35727 c 0.436562,-0.0841 1.150937,-0.0841 1.5875,0 0.436562,0.0841 0.07937,0.15289 -0.79375,0.15289 -0.873125,0 -1.230313,-0.0688 -0.79375,-0.15289 z m -5.815983,-7.05973 c 0.536244,-0.0811 1.329994,-0.0789 1.763889,0.005 0.433896,0.0837 -0.0049,0.15008 -0.974989,0.14744 -0.970139,-0.003 -1.325143,-0.0712 -0.7889,-0.15225 z m 9.079177,-1.64394 c 0,-0.0733 0.277813,-0.35107 0.617361,-0.61736 0.559527,-0.43881 0.572005,-0.42633 0.133195,0.13319 -0.460858,0.58764 -0.750556,0.77452 -0.750556,0.48417 z m 3.453409,-1.18669 c 1.220276,-0.0691 3.125276,-0.0685 4.233333,0.001 1.108054,0.0698 0.109647,0.1263 -2.218686,0.12561 -2.328334,-7.1e-4 -3.234927,-0.0578 -2.014647,-0.12688 z m -6.885104,-13.14401 c 0,-0.87312 0.0688,-1.23031 0.152883,-0.79375 0.08409,0.43657 0.08409,1.15094 0,1.5875 -0.08408,0.43657 -0.152883,0.0794 -0.152883,-0.79375 z m 21.139354,-0.52916 c 0.007,-0.58209 0.0863,-0.7775 0.1757,-0.43426 0.0894,0.34324 0.0836,0.81949 -0.0131,1.05833 -0.0966,0.23884 -0.1698,-0.042 -0.16261,-0.62407 z m 2.1036,-2.99861 c 0,-0.48507 0.0801,-0.68351 0.17793,-0.44098 0.0979,0.24254 0.0979,0.63941 0,0.88195 -0.0979,0.24253 -0.17793,0.0441 -0.17793,-0.44097 z m -2.6652,-5.23288 c -0.0999,-0.16169 0.0425,-0.29398 0.31644,-0.29398 0.27397,0 0.41637,0.13229 0.31644,0.29398 -0.0999,0.16169 -0.24233,0.29399 -0.31644,0.29399 -0.0741,0 -0.21651,-0.1323 -0.31644,-0.29399 z m -1.66884,-1.73449 c -0.43881,-0.55952 -0.42633,-0.572 0.1332,-0.13319 0.58764,0.46086 0.77451,0.75055 0.48416,0.75055 -0.0733,0 -0.35106,-0.27781 -0.61736,-0.61736 z m -9.546142,-0.32918 c 0.254659,-0.10191 0.558934,-0.0894 0.676158,0.0279 0.117225,0.11723 -0.09114,0.20061 -0.463021,0.18529 -0.410968,-0.0169 -0.494559,-0.10052 -0.213137,-0.21314 z m 2.116666,0 c 0.25466,-0.10191 0.558934,-0.0894 0.676159,0.0279 0.117224,0.11723 -0.09114,0.20061 -0.463021,0.18529 -0.410969,-0.0169 -0.494559,-0.10052 -0.213138,-0.21314 z m -3.373437,-4.94108 c 0.339548,-0.0887 0.895173,-0.0887 1.234722,0 0.339549,0.0887 0.06174,0.16133 -0.617361,0.16133 -0.679097,0 -0.95691,-0.0726 -0.617361,-0.16133 z m 0,-0.70555 c 0.339548,-0.0887 0.895173,-0.0887 1.234722,0 0.339549,0.0887 0.06174,0.16133 -0.617361,0.16133 -0.679097,0 -0.95691,-0.0726 -0.617361,-0.16133 z"
         style="fill:#cbcbcc;stroke-width:0.352778" />
      <path
         id="path1049"
         d="m 100.51018,190.7483 c 0.63407,-0.0785 1.58657,-0.0769 2.11667,0.004 0.5301,0.0805 0.0113,0.14473 -1.15284,0.14275 -1.16417,-0.002 -1.59789,-0.0678 -0.96383,-0.14635 z m -139.117372,-0.43645 -8.847868,-0.18982 -1.324553,-1.01103 c -1.3569,-1.0357 -2.675545,-3.49316 -2.675545,-4.9862 0,-1.19519 1.191811,-3.75653 2.167157,-4.65746 2.154265,-1.98991 -2.382594,-1.8699 70.229149,-1.85784 l 66.774525,0.0111 0.633828,0.87085 0.633833,0.87086 -32.73661,0.0169 c -30.090945,0.0156 -32.835376,0.0655 -33.958748,0.61736 -1.521382,0.74742 -2.834802,2.64633 -2.834802,4.09847 0,1.35625 1.507966,3.65405 2.693949,4.10496 0.532172,0.20236 14.213123,0.33451 34.627247,0.33451 h 33.747491 l -0.970114,0.97013 -0.970114,0.97014 -59.170481,0.0134 c -32.5437597,0.007 -63.152018,-0.072 -68.018344,-0.17638 z M 98.41985,188.00488 c -0.06646,-1.06742 -0.0018,-1.94054 0.143739,-1.94028 0.145521,2.7e-4 0.264583,0.87361 0.264583,1.94076 0,2.50423 -0.25238,2.50393 -0.408322,-3.5e-4 z m 5.85507,-7.76063 c 1.8e-4,-5.43278 0.0492,-7.60599 0.10883,-4.82935 0.0597,2.77663 0.0595,7.22163 -3.3e-4,9.87777 -0.0598,2.65615 -0.10868,0.38436 -0.1085,-5.04842 z m -5.652477,-3.175 c 3.38e-4,-3.68653 0.05262,-5.14672 0.11617,-3.24487 0.06355,1.90185 0.06327,4.9181 -7.06e-4,6.70277 -0.06389,1.78468 -0.115891,0.22863 -0.115552,-3.4579 z M 108.853,162.60536 c 3.4e-4,-3.68653 0.0526,-5.14672 0.11617,-3.24487 0.0635,1.90185 0.0633,4.9181 -7.1e-4,6.70277 -0.0639,1.78468 -0.11589,0.22863 -0.11555,-3.4579 z m 8.03757,-1.2282 c -2.10309,-1.97037 -2.10587,-1.91321 0.21989,-4.5264 l 1.35394,-1.52127 1.38258,1.16972 c 2.6926,2.27804 2.97008,2.56405 2.97008,3.06141 0,0.89768 -2.46343,3.5741 -3.28681,3.571 -0.43445,-0.002 -1.58503,-0.76637 -2.63968,-1.75446 z M 78.573246,147.70089 c -0.145302,-0.1453 -1.202044,-0.21016 -2.348318,-0.14413 -1.978872,0.11399 -2.102132,0.0727 -2.440446,-0.81712 -0.195968,-0.51544 -0.356309,-1.63561 -0.356309,-2.48928 0,-1.83988 0.568445,-2.2825 2.931322,-2.2825 1.472364,0 1.579855,0.0663 1.78708,1.10243 0.121268,0.60633 0.220487,1.76521 0.220487,2.57527 0,0.81007 0.1905,1.66335 0.423333,1.89618 0.232833,0.23284 0.338667,0.42334 0.235186,0.42334 -0.103484,0 -0.307033,-0.11888 -0.452335,-0.26419 z m 6.76529,0.0147 c 0.438824,-0.0844 1.073824,-0.0812 1.411111,0.007 0.337287,0.0883 -0.02177,0.15733 -0.797863,0.15342 -0.776111,-0.004 -1.052072,-0.0762 -0.613248,-0.16054 z m 25.439084,-0.72063 c -0.43881,-0.55953 -0.42634,-0.57201 0.13319,-0.1332 0.58764,0.46086 0.77452,0.75056 0.48417,0.75056 -0.0733,0 -0.35107,-0.27781 -0.61736,-0.61736 z m -25.791862,-6.33492 c 0.438824,-0.0844 1.073824,-0.0812 1.411111,0.007 0.337288,0.0883 -0.02177,0.15734 -0.797863,0.15343 -0.776111,-0.004 -1.052072,-0.0762 -0.613248,-0.16055 z m 11.155193,-5.71059 c -2.126114,-0.54452 -4.379189,-1.87786 -5.629275,-3.33134 -1.988904,-2.3125 -2.619615,-4.02873 -2.619615,-7.12826 0,-2.84033 0.46209,-4.29563 2.031792,-6.39892 0.828206,-1.10973 0.845855,-1.11485 1.519739,-0.44097 0.746805,0.74681 0.77713,0.75233 4.473744,0.8149 1.406468,0.0238 2.557406,-0.0651 2.557639,-0.19752 7.05e-4,-0.48761 -1.469958,-0.6845 -3.354518,-0.44904 -1.503917,0.18791 -2.133583,0.11285 -2.818578,-0.33598 -1.147897,-0.75213 -1.113035,-0.93554 0.359068,-1.88915 4.115001,-2.66565 10.326383,-1.81399 13.458643,1.84536 1.7057,1.99272 2.2666,3.24756 2.48969,5.56989 0.17316,1.80254 0.25896,1.981 0.76324,1.5875 0.4834,-0.37719 0.50684,-0.36438 0.15718,0.0858 -0.22604,0.29105 -0.41331,0.60855 -0.41617,0.70556 -0.003,0.097 -0.17511,0.62329 -0.38278,1.16949 -0.20767,0.54621 -0.37758,1.11713 -0.37758,1.26872 0,0.59494 -1.09125,2.41214 -2.2884,3.81074 -2.17828,2.54483 -6.843007,4.1022 -9.923819,3.31318 z m 7.750409,-3.91357 c -0.28843,-1.44215 0.55993,-2.62488 2.63823,-3.67804 1.41265,-0.71584 3.46108,-2.40244 2.35275,-1.93716 -2.03407,0.85391 -4.76752,2.56758 -5.23601,3.2826 -0.58731,0.89634 -0.78879,2.71249 -0.34964,3.15163 0.53155,0.53155 0.79281,0.1717 0.59467,-0.81903 z m -10.934602,-3.21127 c -1.777118,-0.51491 -2.014411,-2.32548 -0.260844,-1.99027 0.822138,0.15717 0.839128,0.10949 0.773888,-2.17164 l -0.06671,-2.33233 -0.126637,2.00668 c -0.1186,1.8793 -0.186951,2.01366 -1.076808,2.11667 -1.894724,0.21933 -0.997081,2.7917 0.95056,2.724 0.863388,-0.03 0.852385,-0.0501 -0.193453,-0.35311 z m 4.783684,-5.38627 c -0.08085,-0.0697 -0.623242,-0.2333 -1.205325,-0.3635 -0.772908,-0.17289 -0.915621,-0.14016 -0.529167,0.12136 0.476381,0.32237 2.088497,0.54742 1.734492,0.24214 z m -7.467131,-1.17476 c -0.339548,-0.0887 -0.895173,-0.0887 -1.234722,0 -0.339548,0.0887 -0.06174,0.16134 0.617361,0.16134 0.679097,0 0.95691,-0.0726 0.617361,-0.16134 z m -0.617361,-7.16515 c 0,-0.38806 0.15875,-0.70556 0.352778,-0.70556 0.194028,0 0.352778,0.3175 0.352778,0.70556 0,0.38805 -0.15875,0.70555 -0.352778,0.70555 -0.194028,0 -0.352778,-0.3175 -0.352778,-0.70555 z m 15.57102,-1.17593 c -0.29172,-0.35149 -0.27291,-0.47037 0.0744,-0.47037 0.25562,0 0.46477,0.21167 0.46477,0.47037 0,0.25871 -0.0335,0.47037 -0.0744,0.47037 -0.0409,0 -0.25007,-0.21166 -0.46477,-0.47037 z"
         style="fill:#9984ce;stroke-width:0.352778" />
      <path
         id="path1047"
         d="m 99.077805,190.43046 c -0.137298,-0.1373 -0.249633,-1.17568 -0.249633,-2.30751 0,-1.13183 -0.104076,-2.05787 -0.231284,-2.05787 -0.127205,0 -0.765521,0.40748 -1.418477,0.90552 -0.658351,0.50215 -1.530795,0.85572 -1.958549,0.79375 -0.679704,-0.0985 -2.300156,-1.95771 -3.018394,-3.46316 -0.138854,-0.29104 -1.046212,-1.69751 -2.016351,-3.12549 -1.674156,-2.46424 -3.424541,-5.29266 -3.934767,-6.35811 -0.128467,-0.26828 0.256614,-1.37953 0.855744,-2.46945 0.835815,-1.52049 1.006863,-2.12898 0.734987,-2.61465 -0.348018,-0.62169 -0.134298,-2.85236 1.291336,-13.47813 0.286354,-2.13431 0.625193,-4.96999 0.752973,-6.3015 l 0.232325,-2.42095 -5.446829,0.25527 c -4.404165,0.20641 -5.519688,0.16336 -5.827437,-0.22488 -0.209331,-0.26409 -0.471029,-1.616 -0.581547,-3.00425 -0.26471,-3.32509 0.06374,-3.64953 3.694716,-3.64953 1.45863,0 4.086175,-0.1018 5.838994,-0.22621 3.143927,-0.22317 3.193461,-0.24102 3.670166,-1.32292 l 0.483228,-1.0967 4.64161,-0.0982 c 4.250594,-0.0899 4.802634,-0.027 6.553174,0.74719 2.22034,0.98193 3.76953,2.50971 4.85552,4.78839 0.44936,0.94286 1.53068,2.24391 2.59101,3.11751 1.00089,0.82463 2.22902,1.85651 2.72919,2.29306 0.50017,0.43655 1.88923,1.65097 3.08681,2.69872 1.38677,1.21327 2.17487,2.17399 2.17042,2.64583 -0.01,1.05179 -3.52061,5.13776 -4.42051,5.14486 -0.39783,0.003 -1.6139,-0.78804 -2.70237,-1.75818 -1.08847,-0.97014 -2.15203,-1.76389 -2.36347,-1.76389 -0.26423,0 -0.38444,2.14711 -0.38444,6.86675 0,7.79791 0.0785,7.59714 -2.96993,7.59714 h -1.60519 l -0.0937,9.96597 -0.0937,9.96597 -2.30801,0.10265 c -1.2694,0.0565 -2.420334,-0.01 -2.557635,-0.14699 z m -0.249633,-13.36121 v -6.52639 h -2.087548 -2.087545 l -1.06886,1.85133 c -1.03687,1.79592 -1.050939,1.87934 -0.470091,2.7873 0.329322,0.51479 1.306146,2.10263 2.170716,3.52854 1.603777,2.64504 3.167077,4.88561 3.408811,4.88561 0.07398,0 0.134517,-2.93688 0.134517,-6.52639 z m 4.468518,-45.21436 c -0.43522,-0.43522 -0.23996,-2.2518 0.33664,-3.13179 0.3145,-0.47999 1.67795,-1.45396 3.02987,-2.16438 1.35193,-0.71042 2.71254,-1.68007 3.02358,-2.15478 0.62057,-0.94711 0.79316,-4.15582 0.31712,-5.89581 -0.23398,-0.85524 -0.20333,-0.97352 0.15973,-0.61638 0.24711,0.24308 0.51338,1.44857 0.59172,2.67887 0.21521,3.3798 -0.76388,4.9398 -4.24791,6.76826 -2.06566,1.08408 -2.90222,2.26629 -2.61608,3.69698 0.19814,0.99073 -0.0631,1.35058 -0.59467,0.81903 z m -11.67671,-4.32468 c -0.859267,-0.94948 -0.582196,-1.94202 0.579671,-2.07651 0.889857,-0.10301 0.958208,-0.23737 1.076808,-2.11667 l 0.126637,-2.00668 0.06671,2.33233 c 0.06524,2.28113 0.04825,2.32881 -0.773888,2.17164 -1.753567,-0.33521 -1.516274,1.47536 0.260844,1.99027 1.045838,0.30302 1.056841,0.32311 0.193453,0.35311 -0.503506,0.0175 -1.192107,-0.27387 -1.530231,-0.64749 z m 4.38597,-5.33403 c -0.386454,-0.26152 -0.243741,-0.29425 0.529167,-0.12136 1.297139,0.29015 1.578719,0.49207 0.676158,0.48485 -0.371887,-0.003 -0.914283,-0.16654 -1.205325,-0.36349 z m -6.967361,-0.93262 c 0.339549,-0.0887 0.895174,-0.0887 1.234722,0 0.339549,0.0887 0.06174,0.16134 -0.617361,0.16134 -0.679097,0 -0.956909,-0.0726 -0.617361,-0.16134 z m 3.337546,-3.02463 c -0.931192,-0.31039 -2.368564,-2.20809 -2.366088,-3.12383 7.06e-4,-0.26814 0.310646,0.0198 0.688714,0.63984 1.1283,1.85046 2.183716,2.34296 4.421696,2.06334 1.884659,-0.23547 3.355911,-0.0385 3.353989,0.44904 -0.0014,0.35558 -5.016433,0.33224 -6.098311,-0.0284 z m 15.326535,-3.09975 c -3.48273,-3.91243 -7.63708,-6.15684 -11.392213,-6.15471 -2.1021,0.001 -2.50644,0.11917 -3.713,1.08342 -0.744703,0.59514 -1.646206,1.62641 -2.003337,2.29171 -0.598822,1.11556 -0.632311,1.13304 -0.430547,0.22475 0.507386,-2.28412 3.352711,-4.13039 6.365448,-4.13039 3.11181,0 7.796719,2.49424 11.023819,5.86906 1.27831,1.33684 2.46298,2.96888 2.13566,2.94218 -0.0553,-0.005 -0.94896,-0.96122 -1.98583,-2.12602 z"
         style="fill:#2f2e41;stroke-width:0.352778" />
    </g>
  </g>
</svg>
